<svg width="20" height="20" viewBox="0 0 20 20" fill="none" xmlns="http://www.w3.org/2000/svg">
<path d="M10.0052 2.62102C12.4113 2.62102 12.6962 2.63157 13.6424 2.67376C14.5219 2.71244 14.9968 2.86013 15.3133 2.9832C15.7319 3.14495 16.0345 3.34186 16.3475 3.65482C16.6641 3.97128 16.8576 4.27017 17.0194 4.68861C17.1425 5.00508 17.2903 5.4833 17.329 6.35886C17.3712 7.30826 17.3817 7.59308 17.3817 9.99473C17.3817 12.3999 17.3712 12.6847 17.329 13.6306C17.2903 14.5097 17.1425 14.9844 17.0194 15.3008C16.8576 15.7193 16.6606 16.0217 16.3475 16.3346C16.0309 16.6511 15.7319 16.8445 15.3133 17.0063C14.9968 17.1293 14.5183 17.277 13.6424 17.3157C12.6927 17.3579 12.4077 17.3684 10.0052 17.3684C7.59906 17.3684 7.31412 17.3579 6.36787 17.3157C5.48845 17.277 5.01356 17.1293 4.69697 17.0063C4.27836 16.8445 3.97584 16.6476 3.66277 16.3346C3.34617 16.0182 3.1527 15.7193 2.99089 15.3008C2.86777 14.9844 2.72003 14.5062 2.68133 13.6306C2.63912 12.6812 2.62857 12.3964 2.62857 9.99473C2.62857 7.58957 2.63912 7.30475 2.68133 6.35886C2.72003 5.47978 2.86777 5.00508 2.99089 4.68861C3.1527 4.27017 3.34969 3.96777 3.66277 3.65482C3.97936 3.33835 4.27836 3.14495 4.69697 2.9832C5.01356 2.86013 5.49196 2.71244 6.36787 2.67376C7.31412 2.63157 7.59906 2.62102 10.0052 2.62102ZM10.0052 1C7.56036 1 7.25432 1.01055 6.294 1.05274C5.33718 1.09494 4.67938 1.24966 4.10951 1.47119C3.51502 1.70326 3.01199 2.00918 2.51248 2.51201C2.00945 3.01133 1.70342 3.51416 1.47125 4.1049C1.24963 4.67806 1.09486 5.3321 1.05264 6.28853C1.01043 7.252 0.999878 7.55792 0.999878 10.0018C0.999878 12.4456 1.01043 12.7515 1.05264 13.7115C1.09486 14.6679 1.24963 15.3255 1.47125 15.8951C1.70342 16.4894 2.00945 16.9922 2.51248 17.4915C3.01199 17.9908 3.51502 18.3003 4.10599 18.5288C4.67938 18.7503 5.33367 18.9051 6.29048 18.9473C7.25081 18.9895 7.55684 19 10.0016 19C12.4464 19 12.7525 18.9895 13.7128 18.9473C14.6696 18.9051 15.3274 18.7503 15.8973 18.5288C16.4883 18.3003 16.9913 17.9908 17.4908 17.4915C17.9903 16.9922 18.2999 16.4894 18.5285 15.8986C18.7501 15.3255 18.9049 14.6714 18.9471 13.715C18.9893 12.755 18.9999 12.4491 18.9999 10.0053C18.9999 7.56144 18.9893 7.25552 18.9471 6.29557C18.9049 5.33913 18.7501 4.68158 18.5285 4.11194C18.3069 3.51416 18.0009 3.01133 17.4978 2.51201C16.9983 2.0127 16.4953 1.70326 15.9043 1.4747C15.3309 1.25317 14.6766 1.09846 13.7198 1.05626C12.756 1.01055 12.4499 1 10.0052 1Z" fill="#211E1D"/>
<path d="M10.0052 5.37781C7.45131 5.37781 5.3794 7.44892 5.3794 10.0018C5.3794 12.5546 7.45131 14.6257 10.0052 14.6257C12.559 14.6257 14.6309 12.5546 14.6309 10.0018C14.6309 7.44892 12.559 5.37781 10.0052 5.37781ZM10.0052 13.0012C8.34832 13.0012 7.00457 11.6579 7.00457 10.0018C7.00457 8.34558 8.34832 7.00234 10.0052 7.00234C11.662 7.00234 13.0057 8.34558 13.0057 10.0018C13.0057 11.6579 11.662 13.0012 10.0052 13.0012Z" fill="#211E1D"/>
<path d="M15.8938 5.19493C15.8938 5.7927 15.4083 6.27444 14.8138 6.27444C14.2158 6.27444 13.7339 5.78919 13.7339 5.19493C13.7339 4.59715 14.2193 4.11542 14.8138 4.11542C15.4083 4.11542 15.8938 4.60067 15.8938 5.19493Z" fill="#211E1D"/>
</svg>
