<svg width="17" height="14" viewBox="0 0 17 14" fill="none" xmlns="http://www.w3.org/2000/svg">
<path d="M5.34794 14C11.7615 14 15.2704 8.61323 15.2704 3.94325C15.2704 3.79182 15.267 3.63702 15.2604 3.48558C15.943 2.98526 16.532 2.36554 16.9999 1.65555C16.3642 1.94222 15.6892 2.12944 14.9981 2.21082C15.7258 1.7687 16.2707 1.07416 16.5317 0.255939C15.8471 0.667158 15.0984 0.957238 14.3178 1.11374C13.7918 0.547267 13.0963 0.172193 12.3389 0.0465095C11.5814 -0.0791738 10.8043 0.0515345 10.1275 0.418426C9.4507 0.785317 8.91202 1.36796 8.59472 2.07626C8.27742 2.78457 8.19917 3.57909 8.37208 4.33699C6.98584 4.26648 5.6297 3.9015 4.39156 3.26571C3.15343 2.62991 2.06094 1.73749 1.18493 0.646309C0.739691 1.42434 0.603449 2.34501 0.803889 3.22119C1.00433 4.09738 1.52641 4.86333 2.26403 5.3634C1.71027 5.34558 1.16864 5.19446 0.683893 4.92255V4.96629C0.683397 5.78278 0.961894 6.57424 1.47204 7.20615C1.98219 7.83805 2.69251 8.27139 3.48225 8.43251C2.96928 8.57476 2.4309 8.59549 1.90876 8.49309C2.13161 9.19527 2.56519 9.80942 3.149 10.2498C3.7328 10.6902 4.4377 10.9349 5.16532 10.9497C3.93004 11.9332 2.40412 12.4666 0.833307 12.4641C0.554737 12.4637 0.276441 12.4464 -9.15527e-05 12.4123C1.59568 13.4499 3.45199 14.001 5.34794 14Z" fill="#211E1D"/>
</svg>
