<svg width="90" height="36" viewBox="0 0 90 36" fill="none" xmlns="http://www.w3.org/2000/svg">
<path d="M13.5392 5.31089C13.4566 5.03762 13.3504 4.71683 13.2206 4.34851C13.1026 3.96832 12.9315 3.60594 12.7074 3.26139C12.4832 2.91683 12.2 2.62574 11.8578 2.38812C11.5157 2.1505 11.0909 2.03168 10.5836 2.03168C10.088 2.03168 9.70455 2.28119 9.43318 2.7802C9.16181 3.26733 9.02612 4.0099 9.02612 5.00792V9.30297H13.5392V11.5307H9.02612V27.5525H3.53965V11.5307H0V9.30297H3.53965V7.27129C3.53965 6.33267 3.72254 5.4297 4.0883 4.56238C4.46586 3.68317 4.98501 2.90495 5.64575 2.22772C6.31828 1.5505 7.10881 1.0099 8.01732 0.605941C8.93763 0.20198 9.94643 0 11.0437 0C11.9404 0 12.7133 0.124752 13.3622 0.374257C14.0111 0.611881 14.5657 0.908911 15.0258 1.26535C15.486 1.6099 15.8636 1.97822 16.1585 2.3703C16.4653 2.7505 16.7072 3.08911 16.8842 3.38614L13.5392 5.31089Z" fill="#211E1D"/>
<path d="M21.2574 9.30297V22.1703C21.2574 22.5267 21.3282 22.8653 21.4698 23.1861C21.6114 23.495 21.8002 23.7683 22.0361 24.0059C22.2839 24.2317 22.5671 24.4099 22.8857 24.5406C23.2042 24.6713 23.5464 24.7366 23.9122 24.7366C24.1127 24.7366 24.3369 24.6832 24.5847 24.5762C24.8443 24.4574 25.1038 24.297 25.3634 24.095C25.6348 23.8931 25.9003 23.6554 26.1598 23.3822C26.4194 23.1089 26.6495 22.8119 26.8501 22.4911V9.30297H32.3365V27.5525H26.8501V25.8594C26.1185 26.4772 25.3457 26.9703 24.5316 27.3386C23.7293 27.7069 22.9388 27.8911 22.16 27.8911C21.2633 27.8911 20.4256 27.7426 19.6469 27.4455C18.8682 27.1366 18.1897 26.7267 17.6116 26.2158C17.0452 25.6931 16.5969 25.0871 16.2665 24.398C15.9361 23.697 15.771 22.9545 15.771 22.1703V9.30297H21.2574Z" fill="#211E1D"/>
<path d="M49.6865 13.1347C49.4387 12.9208 49.2087 12.7366 48.9963 12.5822C48.7957 12.4277 48.5951 12.303 48.3945 12.2079C48.194 12.1129 47.9816 12.0475 47.7574 12.0119C47.545 11.9644 47.3032 11.9406 47.0318 11.9406C46.6542 11.9406 46.2825 12.0059 45.9168 12.1366C45.551 12.2554 45.2089 12.4277 44.8903 12.6535C44.5717 12.8673 44.2826 13.1228 44.0231 13.4198C43.7753 13.705 43.5806 14.0139 43.439 14.3465V27.5525H37.9526V10.9604L41.7931 8.92871L43.439 10.7109C44.0408 10.0812 44.7074 9.57624 45.4389 9.19604C46.1823 8.81584 46.961 8.62574 47.7751 8.62574C48.5656 8.62574 49.2795 8.79208 49.9166 9.12475C50.5537 9.44554 51.1083 9.80198 51.5802 10.1941L49.6865 13.1347Z" fill="#211E1D"/>
<path d="M59.3064 27.5525H53.8376V2.03168L57.6604 0H59.3064V27.5525Z" fill="#211E1D"/>
<path d="M64.982 31.8653C65.1 31.9247 65.2533 32.002 65.4421 32.097C65.6427 32.1921 65.8551 32.2812 66.0793 32.3644C66.3152 32.4475 66.563 32.5188 66.8226 32.5782C67.0822 32.6376 67.3417 32.6673 67.6013 32.6673C67.8137 32.6673 68.0261 32.5426 68.2384 32.2931C68.4508 32.0436 68.6514 31.7525 68.8402 31.4198C69.029 31.0871 69.1942 30.7545 69.3357 30.4218C69.4891 30.0891 69.6012 29.8455 69.672 29.6911L71.2472 26.2515L62.4157 9.30297H68.2208L73.9373 20.2277L78.999 9.30297H82.8749L72.8577 31.2772C72.5273 31.9901 72.1085 32.6376 71.6011 33.2198C71.0938 33.802 70.5392 34.295 69.9375 34.699C69.3357 35.1148 68.7045 35.4356 68.0438 35.6614C67.3948 35.8871 66.7518 36 66.1147 36C65.5837 36 65.0941 35.9347 64.6457 35.804C64.1973 35.6851 63.808 35.501 63.4776 35.2515L64.982 31.8653Z" fill="#211E1D"/>
<path d="M85.1153 25.4851C85.1153 25.1525 85.1743 24.8376 85.2923 24.5406C85.422 24.2317 85.599 23.9703 85.8232 23.7564C86.0474 23.5307 86.3011 23.3525 86.5842 23.2218C86.8792 23.0911 87.1978 23.0257 87.5399 23.0257C87.8821 23.0257 88.2007 23.0911 88.4957 23.2218C88.8024 23.3525 89.062 23.5307 89.2744 23.7564C89.4986 23.9703 89.6755 24.2317 89.8053 24.5406C89.9351 24.8376 90 25.1525 90 25.4851C90 25.8297 89.9351 26.1505 89.8053 26.4475C89.6755 26.7446 89.4986 27 89.2744 27.2139C89.062 27.4277 88.8024 27.5941 88.4957 27.7129C88.2007 27.8436 87.8821 27.9089 87.5399 27.9089C87.1978 27.9089 86.8792 27.8436 86.5842 27.7129C86.3011 27.5941 86.0474 27.4277 85.8232 27.2139C85.599 27 85.422 26.7446 85.2923 26.4475C85.1743 26.1505 85.1153 25.8297 85.1153 25.4851Z" fill="#211E1D"/>
</svg>
