<svg width="26" height="26" viewBox="0 0 26 26" fill="none" xmlns="http://www.w3.org/2000/svg">
<path d="M15.6146 3.65803L15.2727 3.29326L14.5431 3.97721L14.8851 4.34197L15.6146 3.65803ZM21.9999 11.2L22.4948 11.2707L22.5288 11.0331L22.3646 10.858L21.9999 11.2ZM20.4564 22V22.5H20.89L20.9513 22.0707L20.4564 22ZM5.54338 22L5.04841 22.0707L5.10976 22.5H5.54338V22ZM3.99988 11.2L3.63511 10.858L3.47095 11.0331L3.50491 11.2707L3.99988 11.2ZM11.1146 4.34197L11.4566 3.97721L10.7271 3.29326L10.3851 3.65803L11.1146 4.34197ZM14.8851 4.34197L21.6351 11.542L22.3646 10.858L15.6146 3.65803L14.8851 4.34197ZM21.5049 11.1293L19.9614 21.9293L20.9513 22.0707L22.4948 11.2707L21.5049 11.1293ZM20.4564 21.5H5.54338V22.5H20.4564V21.5ZM6.03835 21.9293L4.49485 11.1293L3.50491 11.2707L5.04841 22.0707L6.03835 21.9293ZM4.36465 11.542L11.1146 4.34197L10.3851 3.65803L3.63511 10.858L4.36465 11.542ZM3.99988 11.7H21.9999V10.7H3.99988V11.7Z" fill="#211E1D"/>
</svg>
