<svg width="20" height="20" viewBox="0 0 20 20" fill="none" xmlns="http://www.w3.org/2000/svg">
<path d="M10.0002 1C5.02909 1 1.00018 5.02891 1.00018 10C1.00018 13.8145 3.37323 17.0699 6.7201 18.3812C6.64276 17.6676 6.56893 16.5777 6.75175 15.8008C6.91698 15.0977 7.80643 11.3289 7.80643 11.3289C7.80643 11.3289 7.53573 10.791 7.53573 9.99297C7.53573 8.74141 8.25995 7.80625 9.16346 7.80625C9.92987 7.80625 10.3025 8.38281 10.3025 9.07539C10.3025 9.84883 9.81034 11.002 9.55721 12.0707C9.34628 12.9672 10.0072 13.6984 10.8896 13.6984C12.4892 13.6984 13.7197 12.0109 13.7197 9.57812C13.7197 7.42305 12.1728 5.91484 9.96151 5.91484C7.40214 5.91484 5.89745 7.83437 5.89745 9.8207C5.89745 10.5941 6.19628 11.4238 6.56893 11.8738C6.64276 11.9617 6.65331 12.0426 6.63221 12.1305C6.56542 12.4152 6.41073 13.027 6.38261 13.15C6.34393 13.3152 6.25253 13.3504 6.08026 13.2695C4.95526 12.7457 4.25214 11.1039 4.25214 9.78203C4.25214 6.94141 6.31581 4.33633 10.1971 4.33633C13.3189 4.33633 15.7447 6.56172 15.7447 9.53594C15.7447 12.6367 13.79 15.1328 11.076 15.1328C10.1654 15.1328 9.3076 14.6582 9.01229 14.0992C9.01229 14.0992 8.56229 15.8184 8.45331 16.2402C8.2494 17.0207 7.70096 18.0016 7.33534 18.5992C8.17909 18.8594 9.07206 19 10.0002 19C14.9713 19 19.0002 14.9711 19.0002 10C19.0002 5.02891 14.9713 1 10.0002 1Z" fill="#211E1D"/>
</svg>
